<svg width="24" height="24" viewBox="0 0 24 24" fill="none" xmlns="http://www.w3.org/2000/svg">
<path d="M16.8 9H12.75V15.25C12.75 15.66 12.41 16 12 16C11.59 16 11.25 15.66 11.25 15.25V9H7.2C4 9 2 11 2 14.2V16.79C2 20 4 22 7.2 22H16.79C19.99 22 21.99 20 21.99 16.8V14.2C22 11 20 9 16.8 9Z" fill="#292D32"/>
<path d="M12.7501 4.56L14.8201 6.63C14.9701 6.78 15.1601 6.85 15.3501 6.85C15.5401 6.85 15.7301 6.78 15.8801 6.63C16.1701 6.34 16.1701 5.86 15.8801 5.57L12.5301 2.22C12.2401 1.93 11.7601 1.93 11.4701 2.22L8.12009 5.57C7.83009 5.86 7.83009 6.34 8.12009 6.63C8.41009 6.92 8.89009 6.92 9.18009 6.63L11.2501 4.56V9H12.7501V4.56Z" fill="#292D32"/>
</svg>
