<svg width="99" height="24" viewBox="0 0 99 24" fill="none" xmlns="http://www.w3.org/2000/svg">
<path d="M35.9303 5.4333H33.2015L38.0355 19.7118H41.1062L45.9468 5.4333H43.2114L39.6446 16.672H39.5038L35.9303 5.4333Z" fill="#7B2CBF"/>
<path d="M48.1201 19.7118H50.5471V9.00292H48.1201V19.7118ZM49.3403 7.48304C50.1113 7.48304 50.7416 6.86951 50.7416 6.11654C50.7416 5.35661 50.1113 4.74308 49.3403 4.74308C48.5626 4.74308 47.9324 5.35661 47.9324 6.11654C47.9324 6.86951 48.5626 7.48304 49.3403 7.48304Z" fill="#7B2CBF"/>
<path d="M58.074 19.9209C60.4742 19.9209 62.1235 18.7009 62.5526 16.8394L60.2864 16.5744C59.9579 17.4808 59.1534 17.9549 58.1075 17.9549C56.5386 17.9549 55.4994 16.8812 55.4793 15.0476H62.6531V14.2737C62.6531 10.5158 60.4809 8.86348 57.9466 8.86348C54.9966 8.86348 53.0724 11.1154 53.0724 14.4201C53.0724 17.7806 54.9698 19.9209 58.074 19.9209ZM55.486 13.3464C55.5598 11.9799 56.5319 10.8296 57.9801 10.8296C59.3746 10.8296 60.3133 11.8893 60.3267 13.3464H55.486Z" fill="#7B2CBF"/>
<path d="M67.2484 19.7118H69.7827L71.7136 12.4749H71.8544L73.7853 19.7118H76.3129L79.2294 9.00292H76.7487L74.9653 16.4908H74.8648L73.0143 9.00292H70.5672L68.7167 16.5326H68.6228L66.8126 9.00292H64.3387L67.2484 19.7118Z" fill="#7B2CBF"/>
<path d="M85.6785 19.9209C88.0787 19.9209 89.728 18.7009 90.1571 16.8394L87.891 16.5744C87.5624 17.4808 86.7579 17.9549 85.712 17.9549C84.1431 17.9549 83.1039 16.8812 83.0838 15.0476H90.2577V14.2737C90.2577 10.5158 88.0854 8.86348 85.5511 8.86348C82.6011 8.86348 80.6769 11.1154 80.6769 14.4201C80.6769 17.7806 82.5743 19.9209 85.6785 19.9209ZM83.0905 13.3464C83.1643 11.9799 84.1364 10.8296 85.5846 10.8296C86.9791 10.8296 87.9178 11.8893 87.9312 13.3464H83.0905Z" fill="#7B2CBF"/>
<path d="M92.7829 19.7118H95.21V13.4161C95.21 12.0566 96.1955 11.0945 97.5297 11.0945C97.9387 11.0945 98.4482 11.1712 98.6561 11.2409V8.91925C98.4348 8.87742 98.0527 8.84954 97.7845 8.84954C96.6045 8.84954 95.6189 9.54673 95.2435 10.7877H95.1362V9.00292H92.7829V19.7118Z" fill="#7B2CBF"/>
<path d="M20.6227 9.96831C22.2167 10.8713 22.2167 13.1287 20.6227 14.0317L3.58655 23.6822C1.99253 24.5852 -7.89403e-08 23.4565 0 21.6505L8.43674e-07 2.34949C9.22615e-07 0.543545 1.99253 -0.585169 3.58655 0.317803L20.6227 9.96831Z" fill="#7B2CBF"/>
</svg>
